M48
; DRILL file KiCad 10.0.3 date 2026-07-03T12:18:53
; FORMAT={-:-/ absolute / inch / decimal}
; #@! TF.CreationDate,2026-07-03T12:18:53+08:00
; #@! TF.GenerationSoftware,Kicad,Pcbnew,10.0.3
; #@! TF.FileFunction,Plated,1,4,PTH
FMAT,2
INCH
; #@! TA.AperFunction,Plated,PTH,ViaDrill
T1C0.0118
; #@! TA.AperFunction,Plated,PTH,ViaDrill
T2C0.0197
; #@! TA.AperFunction,Plated,PTH,ViaDrill
T3C0.0276
; #@! TA.AperFunction,Plated,PTH,ViaDrill
T4C0.0315
; #@! TA.AperFunction,Plated,PTH,ComponentDrill
T5C0.0413
; #@! TA.AperFunction,Plated,PTH,ComponentDrill
T6C0.0433
; #@! TA.AperFunction,Plated,PTH,ComponentDrill
T7C0.0512
%
G90
G05
T1
X2.2008Y-4.1181
X2.2008Y-4.2185
X2.2185Y-2.3346
X2.2205Y-2.2323
X2.2244Y-2.7067
X2.2264Y-2.8071
X2.2343Y-4.5965
X2.2343Y-4.6949
X2.2441Y-2.1831
X2.2441Y-2.3839
X2.2441Y-2.6555
X2.2441Y-2.8563
X2.2441Y-3.128
X2.2441Y-3.3287
X2.2441Y-3.6004
X2.2441Y-3.8012
X2.2441Y-4.0728
X2.2441Y-4.1181
X2.2441Y-4.2185
X2.2441Y-4.2736
X2.2441Y-4.5453
X2.2441Y-4.7461
X2.2441Y-5.0177
X2.2441Y-5.2185
X2.2441Y-5.4902
X2.2441Y-5.6909
X2.2835Y-2.2323
X2.2835Y-2.3346
X2.2894Y-2.7047
X2.2894Y-2.8071
X2.2913Y-4.2185
X2.2933Y-4.1181
X2.2933Y-4.6949
X2.2953Y-4.5965
X2.3217Y-3.6609
X2.3261Y-5.5513
X2.3441Y-2.2325
X2.3445Y-4.1187
X2.3455Y-2.333
X2.3459Y-4.2192
X2.3499Y-2.7047
X2.3502Y-2.8058
X2.3502Y-4.5956
X2.3516Y-4.6961
X2.3967Y-2.2318
X2.398Y-2.3323
X2.3985Y-4.1183
X2.3998Y-4.2188
X2.41Y-2.704
X2.4102Y-2.805
X2.4108Y-4.5947
X2.411Y-4.6958
X2.4522Y-2.2325
X2.4536Y-2.333
X2.454Y-4.119
X2.4553Y-4.2195
X2.4689Y-2.7044
X2.4691Y-2.8055
X2.4697Y-4.5952
X2.4699Y-4.6963
X2.5113Y-2.3338
X2.512Y-4.2245
X2.5281Y-2.7037
X2.5283Y-2.8048
X2.5288Y-4.5945
X2.5291Y-4.6955
X2.5711Y-2.3301
X2.5719Y-4.2209
X2.5787Y-2.2244
X2.5795Y-4.1152
X2.5938Y-2.7037
X2.594Y-2.8048
X2.5946Y-4.5945
X2.5948Y-4.6955
X2.6378Y-2.2244
X2.6378Y-2.3425
X2.6386Y-4.1152
X2.6386Y-4.2333
X2.6457Y-4.7146
X2.6516Y-2.8307
X2.6549Y-2.704
X2.6557Y-4.5948
X2.6772Y-4.7461
X2.6969Y-2.2244
X2.6969Y-2.3425
X2.6976Y-4.1152
X2.6976Y-4.2333
X2.7008Y-2.876
X2.7224Y-4.7736
X2.7264Y-4.5236
X2.7264Y-4.622
X2.7303Y-2.628
X2.7303Y-2.7283
X2.7308Y-2.3739
X2.7316Y-4.2647
X2.7585Y-2.2324
X2.7593Y-4.1232
X2.7644Y-2.4068
X2.7652Y-4.2975
X2.7901Y-2.2869
X2.7909Y-4.1777
X2.7958Y-2.4382
X2.7966Y-4.3289
X2.8237Y-2.3198
X2.8245Y-4.2106
X2.8462Y-2.4499
X2.847Y-4.3406
X2.8551Y-2.3512
X2.8559Y-4.242
X2.8996Y-2.4506
X2.9003Y-4.3414
X2.91Y-2.3518
X2.9107Y-4.2425
X2.9536Y-2.4499
X2.9544Y-4.3406
X2.964Y-2.351
X2.9648Y-4.2418
X3.004Y-2.4506
X3.0048Y-4.3414
X3.0144Y-2.3518
X3.0152Y-4.2425
X3.0335Y-2.9272
X3.0335Y-4.8228
X3.0537Y-2.4506
X3.0545Y-4.3414
X3.0641Y-2.3518
X3.0649Y-4.2425
X3.1033Y-2.4506
X3.1041Y-4.3414
X3.1138Y-2.3518
X3.1145Y-4.2425
X3.1378Y-4.5748
X3.1417Y-4.687
X3.1437Y-4.4685
X3.1457Y-2.7992
X3.1523Y-2.4513
X3.1531Y-4.3421
X3.1535Y-2.6811
X3.1575Y-2.5768
X3.1627Y-2.3525
X3.1635Y-4.2433
X3.1791Y-4.7244
X3.187Y-2.8425
X3.1988Y-2.8957
X3.1988Y-2.9508
X3.2008Y-4.7677
X3.2027Y-2.4513
X3.2028Y-4.8307
X3.2035Y-4.3421
X3.2087Y-2.7303
X3.2087Y-4.5748
X3.2106Y-2.6811
X3.2136Y-2.3513
X3.2144Y-4.2421
X3.2146Y-2.5768
X3.2146Y-4.4685
X3.2224Y-4.628
X3.2371Y-4.3647
X3.2539Y-2.4508
X3.2559Y-2.7756
X3.2638Y-4.6713
X3.2691Y-2.2874
X3.2698Y-2.2205
X3.2698Y-2.2538
X3.2698Y-2.3188
X3.2711Y-4.1734
X3.2718Y-4.1398
X3.2718Y-4.2048
X3.2756Y-2.6811
X3.2773Y-4.3901
X3.2776Y-2.5768
X3.2795Y-4.4665
X3.2795Y-4.5768
X3.2953Y-4.8287
X3.2972Y-2.8346
X3.2972Y-4.7205
X3.2972Y-4.7756
X3.2992Y-2.8898
X3.2992Y-2.9449
X3.3051Y-2.435
X3.3064Y-2.2874
X3.3071Y-2.2205
X3.3071Y-2.2538
X3.3071Y-2.3188
X3.3083Y-4.1734
X3.3091Y-4.1398
X3.3091Y-4.2048
X3.3211Y-4.3893
X3.3366Y-2.6811
X3.3386Y-2.5768
X3.3466Y-2.2859
X3.3467Y-4.2798
X3.3473Y-2.2205
X3.3473Y-2.2538
X3.3473Y-2.3195
X3.3474Y-4.3368
X3.3485Y-4.1719
X3.3493Y-4.1398
X3.3493Y-4.2055
X3.3504Y-2.435
X3.3504Y-4.4665
X3.3504Y-4.5768
X3.3627Y-4.3879
X3.3872Y-2.2874
X3.3878Y-2.6811
X3.3879Y-2.2205
X3.3879Y-2.2538
X3.3879Y-2.3188
X3.3892Y-4.1734
X3.3899Y-4.1398
X3.3899Y-4.2048
X3.3976Y-2.4429
X3.4035Y-2.5768
X3.4051Y-4.3886
X3.4114Y-4.4665
X3.4154Y-4.5807
X3.4245Y-2.2874
X3.4252Y-2.2205
X3.4252Y-2.2538
X3.4252Y-2.3188
X3.4264Y-4.1734
X3.4272Y-4.1398
X3.4272Y-4.2048
X3.435Y-2.4764
X3.437Y-2.6909
X3.4511Y-4.3769
X3.4576Y-2.5473
X3.4584Y-4.4381
X3.481Y-2.681
X3.4818Y-4.5717
X3.4843Y-2.5039
X3.4978Y-4.4023
X3.5138Y-4.25
X3.5217Y-2.3625
X3.5226Y-2.6401
X3.5234Y-4.5308
X3.5236Y-5.7283
X3.5618Y-3.3287
X3.5635Y-2.5977
X3.5643Y-4.4885
X3.565Y-5.2264
X3.5709Y-4.2756
X3.5728Y-2.3701
X3.6181Y-3.8425
X3.6183Y-2.5604
X3.6191Y-4.4512
X3.6319Y-4.2717
X3.6344Y-2.3749
X3.6428Y-2.5102
X3.6436Y-4.4009
X3.6925Y-2.4994
X3.693Y-2.3811
X3.6933Y-4.3902
X3.6938Y-4.2719
X3.747Y-2.3804
X3.7478Y-4.2712
X3.749Y-2.5014
X3.7498Y-4.3922
X3.7559Y-2.5669
X3.7974Y-2.3811
X3.7982Y-4.2719
X3.7997Y-4.4185
X3.8004Y-4.4973
X3.8189Y-2.502
X3.8425Y-4.8465
X3.8465Y-2.6319
X3.8471Y-2.3811
X3.8479Y-4.2719
X3.8681Y-4.5214
X3.8898Y-5.4331
X3.8937Y-3.061
X3.8958Y-2.5022
X3.8966Y-4.3929
X3.8968Y-2.3811
X3.8975Y-4.2719
X3.9221Y-4.5206
X3.9252Y-3.4843
X3.9252Y-3.5551
X3.937Y-5.3583
X3.9455Y-2.5022
X3.9463Y-4.3929
X3.9488Y-2.6339
X3.9545Y-2.3811
X3.9552Y-4.2719
X3.9787Y-4.9429
X3.9798Y-3.0512
X3.9806Y-3.5672
X3.9813Y-4.5155
X3.9831Y-5.4618
X4.0073Y-2.6358
X4.0085Y-2.3804
X4.0093Y-4.2712
X4.0093Y-2.5008
X4.0101Y-4.3916
X4.0118Y-3.563
X4.0157Y-3.0571
X4.0157Y-5.4528
X4.0171Y-4.9462
X4.0353Y-4.5148
X4.0571Y-2.6319
X4.0589Y-2.3811
X4.0597Y-4.2719
X4.0597Y-2.5015
X4.0605Y-4.3923
X4.0651Y-2.9412
X4.0857Y-4.5155
X4.1086Y-2.3811
X4.1094Y-4.2719
X4.1094Y-2.5015
X4.1102Y-4.3923
X4.1132Y-2.6397
X4.1161Y-4.7559
X4.1354Y-4.5155
X4.1369Y-3.3348
X4.1582Y-2.3811
X4.159Y-4.2719
X4.1591Y-2.5015
X4.1598Y-4.3923
X4.1637Y-2.9412
X4.1716Y-5.2276
X4.1736Y-2.6397
X4.185Y-5.1614
X4.1851Y-4.5155
X4.1887Y-3.2751
X4.2145Y-2.3811
X4.2153Y-4.2719
X4.2153Y-2.5015
X4.2161Y-4.3923
X4.2277Y-2.639
X4.2413Y-4.5155
X4.2539Y-4.1358
X4.2685Y-2.3804
X4.2693Y-4.2712
X4.2694Y-2.5008
X4.2701Y-4.3916
X4.2781Y-2.6397
X4.2954Y-4.5148
X4.3031Y-4.185
X4.3189Y-2.3811
X4.3197Y-4.2719
X4.3198Y-2.5015
X4.3205Y-4.3923
X4.3363Y-2.6594
X4.3445Y-4.2283
X4.3534Y-4.5148
X4.3672Y-2.4095
X4.368Y-4.3003
X4.3694Y-2.4657
X4.3702Y-4.3565
X4.386Y-2.6594
X4.4135Y-2.4967
X4.4144Y-4.5144
X4.4422Y-2.6594
X4.4567Y-4.9011
X4.4674Y-4.4885
X4.4676Y-2.496
X4.4783Y-3.0118
X4.4836Y-4.1728
X4.5068Y-4.4436
X4.5079Y-2.6575
X4.509Y-4.3768
X4.5099Y-4.3152
X4.5121Y-4.2484
X4.518Y-2.4967
X4.5677Y-2.4967
X4.6173Y-2.4967
X4.6215Y-3.1708
X4.622Y-4.9507
X4.6516Y-3.1614
X4.6535Y-4.9508
X4.6736Y-2.4967
X4.7127Y-3.3142
X4.7165Y-5.2618
X4.7717Y-3.372
X4.7854Y-4.624
X4.7874Y-2.7343
X4.8194Y-3.1389
X4.8226Y-5.0305
X4.8915Y-3.0494
X4.9192Y-4.8967
X4.9872Y-4.9408
X4.9934Y-3.0536
X5.0Y-5.0728
X5.0315Y-5.074
X5.0315Y-3.1732
X5.0626Y-3.1783
X5.1614Y-5.4606
X5.1811Y-2.7382
X5.1988Y-4.6201
X5.2087Y-3.5827
X5.2343Y-2.8622
X5.2346Y-4.7504
X5.2546Y-2.8382
X5.2578Y-4.729
X5.4961Y-4.6634
X5.8858Y-4.5059
X6.1063Y-2.7461
X6.25Y-4.378
X6.4252Y-4.1122
X6.5925Y-4.4882
X6.6383Y-4.5517
X6.7845Y-2.5319
X6.8012Y-2.9075
X7.0256Y-4.2894
X7.0335Y-3.937
X7.1101Y-4.7421
X7.1693Y-4.2913
T2
X2.3386Y-3.7008
X2.3443Y-5.5906
X2.5394Y-2.5374
X3.3189Y-3.7362
X3.3189Y-5.6417
X3.3257Y-3.9359
X3.563Y-3.0709
X3.5638Y-4.9616
X3.5669Y-5.7283
X3.6063Y-3.5453
X3.6102Y-5.4409
X3.6614Y-3.8386
X3.8996Y-2.7047
X4.2921Y-4.7057
X4.3209Y-2.8445
X4.5472Y-5.6102
X4.6457Y-3.7598
X5.3543Y-5.7087
X5.8441Y-4.5693
T3
X4.2717Y-4.0551
X4.5061Y-3.945
X4.8425Y-2.5787
X5.0787Y-2.5787
X5.5315Y-2.5787
T4
X5.2205Y-5.2283
X5.4921Y-5.2953
X5.7677Y-5.3346
X6.2205Y-4.1732
T5
X7.1559Y-2.561
X7.2559Y-2.561
X7.3559Y-2.561
T6
X4.0437Y-5.0268
X4.0437Y-5.1268
X4.0437Y-5.2728
X4.0437Y-5.3728
X4.0516Y-3.137
X4.0516Y-3.237
X4.0516Y-3.3858
X4.0516Y-3.4858
X4.1437Y-5.0268
X4.1437Y-5.1268
X4.1437Y-5.2728
X4.1437Y-5.3728
X4.1516Y-3.137
X4.1516Y-3.237
X4.1516Y-3.3858
X4.1516Y-3.4858
X4.2437Y-5.0268
X4.2437Y-5.1268
X4.2437Y-5.2728
X4.2437Y-5.3728
X4.2516Y-3.137
X4.2516Y-3.237
X4.2516Y-3.3858
X4.2516Y-3.4858
X4.761Y-2.9059
X4.761Y-3.0059
X4.761Y-3.1059
X4.7661Y-4.8
X4.7661Y-4.9
X4.7661Y-5.0
X4.861Y-2.9059
X4.861Y-3.0059
X4.861Y-3.1059
X4.8661Y-4.8
X4.8661Y-4.9
X4.8661Y-5.0
X5.0169Y-2.9059
X5.0169Y-3.0059
X5.0169Y-3.1059
X5.0209Y-4.7996
X5.0209Y-4.8996
X5.0209Y-4.9996
X5.1169Y-2.9059
X5.1169Y-3.0059
X5.1169Y-3.1059
X5.1209Y-4.7996
X5.1209Y-4.8996
X5.1209Y-4.9996
X7.7406Y-2.387
X7.7406Y-2.487
X7.7406Y-2.587
X7.7406Y-2.687
X7.7406Y-2.787
X7.7406Y-2.887
X7.7406Y-2.987
X7.7406Y-3.087
X7.7406Y-3.187
X7.7406Y-3.287
X7.7406Y-3.387
X7.7406Y-3.487
X7.7406Y-3.587
X7.7406Y-3.687
X7.7406Y-3.787
X7.7406Y-3.887
X7.7406Y-3.987
X7.7406Y-4.087
X7.7406Y-4.187
X7.7406Y-4.287
X7.7406Y-4.387
X7.7406Y-4.487
X7.7406Y-4.587
X7.7406Y-4.687
X7.7406Y-4.787
X7.7406Y-4.887
X7.7406Y-4.987
X7.7406Y-5.087
X7.7406Y-5.187
X7.7406Y-5.287
X7.7406Y-5.387
X7.7406Y-5.487
X7.9406Y-2.387
X7.9406Y-2.487
X7.9406Y-2.587
X7.9406Y-2.687
X7.9406Y-2.787
X7.9406Y-2.887
X7.9406Y-2.987
X7.9406Y-3.087
X7.9406Y-3.187
X7.9406Y-3.287
X7.9406Y-3.387
X7.9406Y-3.487
X7.9406Y-3.587
X7.9406Y-3.687
X7.9406Y-3.787
X7.9406Y-3.887
X7.9406Y-3.987
X7.9406Y-4.087
X7.9406Y-4.187
X7.9406Y-4.287
X7.9406Y-4.387
X7.9406Y-4.487
X7.9406Y-4.587
X7.9406Y-4.687
X7.9406Y-4.787
X7.9406Y-4.887
X7.9406Y-4.987
X7.9406Y-5.087
X7.9406Y-5.187
X7.9406Y-5.287
X7.9406Y-5.387
X7.9406Y-5.487
T7
X7.0101Y-4.9016
X7.1101Y-4.9016
X7.2101Y-4.9016
M30
